<svg width="16" height="16" viewBox="0 0 16 16" fill="none" xmlns="http://www.w3.org/2000/svg">
<path d="M10.6105 10.1C12.5905 7.85001 12.5005 4.43001 10.3705 2.30001C8.15047 0.0800098 4.52047 0.0800098 2.27047 2.30001C0.0504688 4.52001 0.0504688 8.15001 2.27047 10.4C3.38047 11.51 4.85047 12.08 6.32047 12.08C7.67047 12.08 9.02047 11.6 10.1005 10.67L14.7805 15.35C14.8405 15.41 14.9605 15.47 15.0505 15.47C15.1405 15.47 15.2305 15.44 15.3205 15.35C15.4705 15.2 15.4705 14.96 15.3205 14.81L10.6105 10.1ZM2.81047 9.83001C0.860469 7.88001 0.860469 4.73001 2.81047 2.81001C3.77047 1.85001 5.06047 1.37001 6.32047 1.37001C7.58047 1.37001 8.87047 1.85001 9.83047 2.81001C11.7805 4.76001 11.7805 7.91001 9.83047 9.83001C7.91047 11.78 4.73047 11.78 2.81047 9.83001Z" fill="#1D2129"/>
</svg>
